<svg width="1301" height="514" viewBox="0 0 1301 514" fill="none" xmlns="http://www.w3.org/2000/svg">
<g clip-path="url(#clip0_340_754)">
<mask id="mask0_340_754" style="mask-type:alpha" maskUnits="userSpaceOnUse" x="-7" y="46" width="1315" height="422">
<path d="M0 451.577C15.8704 470.018 31.7408 451.577 48.9337 423.917C64.8041 396.256 80.6745 359.376 96.545 331.715C112.415 304.055 128.286 285.615 144.156 257.954C160.027 230.294 177.22 193.413 193.09 174.973C208.96 156.533 224.831 156.533 240.701 184.193C256.572 211.853 272.442 267.174 288.312 276.394C304.183 285.615 321.376 248.734 337.246 248.734C353.117 248.734 368.987 285.615 384.857 285.615C400.728 285.615 416.598 248.734 432.469 276.394C449.662 304.055 465.532 396.256 481.402 405.476C497.273 414.697 513.143 340.935 529.014 313.275C544.884 285.615 560.754 304.055 577.947 304.055C593.818 304.055 609.688 285.615 625.559 276.394C641.429 267.174 657.299 267.174 673.17 239.514C689.04 211.853 706.233 156.533 722.103 110.432C737.974 64.3311 753.844 27.4505 769.715 82.7714C785.585 138.092 801.456 285.615 817.326 359.376C833.196 433.137 850.389 433.137 866.26 377.816C882.13 322.495 898.001 211.853 913.871 156.533C929.741 101.212 945.612 101.212 961.482 128.872C978.675 156.533 994.545 211.853 1010.42 202.633C1026.29 193.413 1042.16 119.652 1058.03 156.533C1073.9 193.413 1089.77 340.935 1106.96 340.935C1122.83 340.935 1138.7 193.413 1154.57 138.092C1170.44 82.7714 1186.31 119.652 1202.18 202.633C1218.05 285.615 1235.25 414.697 1251.12 442.357C1266.99 470.018 1282.86 396.256 1290.79 359.376L1298.73 322.495" stroke="white" stroke-width="17.5652"/>
</mask>
<g mask="url(#mask0_340_754)">
<rect x="71.3587" y="28.6523" width="1234.51" height="535.739" fill="url(#paint0_linear_340_754)"/>
</g>
<circle opacity="0.2" cx="716" cy="130" r="40" fill="#4DA8DA"/>
<circle cx="716" cy="130" r="20" fill="#4DA8DA"/>
<g filter="url(#filter0_d_340_754)">
<rect x="623" y="223.931" width="185.069" height="93.6552" rx="46.8276" fill="#4DA8DA" shape-rendering="crispEdges"/>
<path d="M663.826 277.508V271.437H658.128V268.532H663.826V262.462H666.992V268.532H672.652V271.437H666.992V277.508H663.826ZM685.896 286.297L686.194 282.126C684.729 282.026 683.363 281.766 682.097 281.343C680.856 280.921 679.825 280.375 679.006 279.705L680.645 276.949C681.464 277.644 682.383 278.215 683.401 278.662C684.443 279.084 685.648 279.295 687.013 279.295C688.652 279.295 689.943 278.948 690.886 278.252C691.854 277.557 692.339 276.639 692.339 275.497C692.339 274.826 692.202 274.243 691.929 273.746C691.656 273.225 691.122 272.716 690.328 272.219C689.558 271.723 688.403 271.189 686.864 270.618C685.225 269.972 683.91 269.327 682.916 268.681C681.948 268.036 681.253 267.303 680.831 266.484C680.409 265.64 680.198 264.647 680.198 263.505C680.198 261.941 680.781 260.588 681.948 259.446C683.14 258.279 684.828 257.596 687.013 257.397L686.715 253.152H689.992L689.657 257.397C690.75 257.472 691.768 257.646 692.711 257.919C693.654 258.192 694.573 258.539 695.467 258.961L694.275 261.755C693.505 261.308 692.599 260.923 691.556 260.6C690.514 260.277 689.421 260.116 688.279 260.116C686.765 260.116 685.573 260.414 684.704 261.01C683.835 261.606 683.401 262.375 683.401 263.319C683.401 263.915 683.525 264.448 683.773 264.92C684.021 265.367 684.518 265.814 685.263 266.261C686.008 266.683 687.125 267.167 688.614 267.713C690.402 268.359 691.805 269.054 692.823 269.799C693.865 270.519 694.598 271.313 695.02 272.182C695.467 273.026 695.69 273.995 695.69 275.087C695.69 277.073 695.045 278.662 693.754 279.854C692.463 281.021 690.824 281.741 688.838 282.014L689.173 286.297H685.896ZM710.014 283.206C707.109 283.206 704.899 282.026 703.385 279.668C701.87 277.284 701.113 273.957 701.113 269.687C701.113 265.392 701.883 262.077 703.422 259.743C704.986 257.41 707.208 256.243 710.088 256.243C712.993 256.243 715.203 257.422 716.717 259.781C718.232 262.139 718.989 265.466 718.989 269.761C718.989 274.057 718.207 277.371 716.643 279.705C715.103 282.039 712.894 283.206 710.014 283.206ZM710.051 280.152C711.168 280.152 712.124 279.829 712.918 279.183C713.738 278.513 714.359 277.421 714.781 275.906C715.227 274.392 715.451 272.356 715.451 269.799C715.451 266.372 714.967 263.766 713.999 261.978C713.055 260.19 711.739 259.297 710.051 259.297C708.934 259.297 707.965 259.632 707.146 260.302C706.352 260.948 705.731 262.028 705.284 263.542C704.862 265.032 704.651 267.068 704.651 269.65C704.651 273.076 705.123 275.683 706.066 277.47C707.034 279.258 708.363 280.152 710.051 280.152ZM724.151 288.717L722.326 287.675C723.319 286.408 724.114 285.13 724.709 283.839C725.33 282.548 725.802 281.07 726.125 279.407L729.402 280.338C729.154 282.225 728.558 283.876 727.614 285.291C726.696 286.706 725.541 287.848 724.151 288.717ZM735.651 282.759C735.577 282.312 735.539 281.852 735.539 281.381C735.539 279.767 735.813 278.327 736.359 277.061C736.93 275.77 737.662 274.603 738.556 273.56C739.45 272.492 740.393 271.512 741.386 270.618C742.404 269.699 743.348 268.83 744.217 268.011C745.11 267.167 745.843 266.323 746.414 265.479C746.985 264.635 747.27 263.753 747.27 262.835C747.27 261.792 746.886 260.935 746.116 260.265C745.346 259.57 744.353 259.222 743.137 259.222C742.094 259.222 741.138 259.433 740.269 259.855C739.425 260.252 738.63 260.799 737.886 261.494L736.024 259.222C737.017 258.328 738.109 257.608 739.301 257.062C740.517 256.516 741.92 256.243 743.509 256.243C744.974 256.243 746.253 256.528 747.345 257.099C748.437 257.646 749.282 258.403 749.877 259.371C750.498 260.339 750.808 261.419 750.808 262.611C750.808 263.803 750.548 264.908 750.026 265.926C749.505 266.943 748.835 267.899 748.015 268.793C747.196 269.687 746.315 270.556 745.371 271.4C744.428 272.219 743.522 273.063 742.653 273.932C741.784 274.801 741.039 275.708 740.418 276.651C739.822 277.595 739.45 278.612 739.301 279.705H750.771V282.759H735.651ZM766.063 283.206C764.176 283.206 762.537 282.883 761.147 282.237C759.757 281.592 758.677 280.723 757.907 279.63C757.162 278.513 756.79 277.284 756.79 275.943C756.79 274.33 757.224 272.927 758.093 271.735C758.987 270.543 760.377 269.538 762.264 268.719C760.948 267.999 759.93 267.167 759.21 266.223C758.515 265.255 758.168 264.063 758.168 262.648C758.168 261.382 758.503 260.277 759.173 259.334C759.844 258.366 760.75 257.608 761.892 257.062C763.059 256.516 764.35 256.243 765.765 256.243C767.304 256.243 768.657 256.528 769.824 257.099C770.991 257.646 771.897 258.403 772.543 259.371C773.213 260.339 773.548 261.419 773.548 262.611C773.548 264.126 773.164 265.355 772.394 266.298C771.624 267.241 770.594 268.036 769.303 268.681C771.14 269.451 772.543 270.419 773.511 271.586C774.479 272.728 774.964 274.106 774.964 275.72C774.964 277.21 774.579 278.526 773.809 279.668C773.039 280.785 771.984 281.654 770.644 282.275C769.303 282.895 767.776 283.206 766.063 283.206ZM766.249 267.452C767.341 267.08 768.285 266.509 769.079 265.739C769.899 264.97 770.308 264.039 770.308 262.946C770.308 261.804 769.874 260.861 769.005 260.116C768.136 259.371 767.056 258.999 765.765 258.999C764.499 258.999 763.456 259.334 762.637 260.004C761.817 260.65 761.408 261.506 761.408 262.574C761.408 263.641 761.842 264.61 762.711 265.479C763.605 266.348 764.784 267.006 766.249 267.452ZM766.1 280.226C767.689 280.226 768.992 279.817 770.01 278.997C771.028 278.153 771.537 277.086 771.537 275.795C771.537 274.603 771.004 273.535 769.936 272.592C768.893 271.648 767.441 270.841 765.579 270.171C764.635 270.395 763.754 270.742 762.935 271.214C762.115 271.686 761.457 272.269 760.961 272.964C760.464 273.659 760.216 274.454 760.216 275.348C760.216 276.266 760.464 277.098 760.961 277.843C761.482 278.588 762.19 279.171 763.084 279.593C763.977 280.015 764.983 280.226 766.1 280.226Z" fill="white"/>
</g>
</g>
<defs>
<filter id="filter0_d_340_754" x="560.931" y="177.379" width="309.207" height="217.793" filterUnits="userSpaceOnUse" color-interpolation-filters="sRGB">
<feFlood flood-opacity="0" result="BackgroundImageFix"/>
<feColorMatrix in="SourceAlpha" type="matrix" values="0 0 0 0 0 0 0 0 0 0 0 0 0 0 0 0 0 0 127 0" result="hardAlpha"/>
<feOffset dy="15.5172"/>
<feGaussianBlur stdDeviation="31.0345"/>
<feComposite in2="hardAlpha" operator="out"/>
<feColorMatrix type="matrix" values="0 0 0 0 0 0 0 0 0 0 0 0 0 0 0 0 0 0 0.1 0"/>
<feBlend mode="normal" in2="BackgroundImageFix" result="effect1_dropShadow_340_754"/>
<feBlend mode="normal" in="SourceGraphic" in2="effect1_dropShadow_340_754" result="shape"/>
</filter>
<linearGradient id="paint0_linear_340_754" x1="1286.33" y1="249.527" x2="71.2966" y2="262.518" gradientUnits="userSpaceOnUse">
<stop stop-color="#18555E" stop-opacity="0"/>
<stop offset="0.291667" stop-color="#18555E"/>
<stop offset="0.671875" stop-color="#18555E" stop-opacity="0.57"/>
<stop offset="1" stop-color="#18555E" stop-opacity="0"/>
</linearGradient>
<clipPath id="clip0_340_754">
<rect width="1301" height="514" fill="white"/>
</clipPath>
</defs>
</svg>
