<svg width="577" height="439" viewBox="0 0 577 439" fill="none" xmlns="http://www.w3.org/2000/svg">
<path d="M-23 126.976L347.623 18.2696C378.748 9.14057 409.911 32.4766 409.911 64.9123V457.215C409.911 484.06 388.149 505.823 361.304 505.823H-23V126.976Z" fill="url(#paint0_linear_100_897)"/>
<path d="M-23 127.192L443.764 57.6738C473.136 53.2991 499.532 76.0544 499.532 105.751V457.975C499.532 484.821 477.769 506.583 450.924 506.583H-23V127.192Z" fill="url(#paint1_linear_100_897)"/>
<path d="M-23 126.835L526.463 105.008C554.043 103.912 577 125.975 577 153.577V457.975C577 484.82 555.238 506.582 528.392 506.582H-23V126.835Z" fill="url(#paint2_linear_100_897)"/>
<g filter="url(#filter0_d_100_897)">
<path d="M224.583 397.781L178.422 253.182C175.456 245.581 172.49 240.112 169.524 236.775C166.558 233.439 162.109 231.214 156.176 230.102C153.581 229.545 151.727 229.082 150.615 228.711C149.688 228.34 149.225 226.672 149.225 223.706C149.225 220.554 150.337 218.886 152.561 218.701C154.786 218.33 157.381 218.144 160.348 218.144C172.768 218.33 182.408 220.647 189.267 225.096C196.127 229.36 201.595 236.775 205.674 247.342L237.374 349.118H238.487L272.412 219.535H286.872L332.198 349.118H333.032L364.455 244.283C365.938 238.351 365.845 234.643 364.176 233.16C362.693 231.492 358.708 230.658 352.219 230.658C350.365 230.658 348.79 230.472 347.492 230.102C346.194 229.731 345.453 227.97 345.267 224.818C345.267 223.335 345.638 221.945 346.38 220.647C347.121 219.349 348.326 218.701 349.995 218.701C355.927 218.886 361.025 219.071 365.289 219.257C369.738 219.442 374.743 219.535 380.305 219.535C384.012 219.535 387.071 219.535 389.481 219.535C391.891 219.349 394.301 219.257 396.711 219.257C399.307 219.071 402.551 218.886 406.444 218.701C408.298 218.701 409.595 219.349 410.337 220.647C411.078 221.945 411.449 223.335 411.449 224.818C411.264 227.97 410.522 229.731 409.225 230.102C408.112 230.472 406.537 230.658 404.497 230.658C397.453 230.658 391.613 232.048 386.979 234.829C382.529 237.424 379.285 242.337 377.246 249.567L331.642 397.781H318.572L273.524 265.139L237.652 397.781H224.583Z" fill="white"/>
</g>
<defs>
<filter id="filter0_d_100_897" x="93.6096" y="168.091" width="373.455" height="290.866" filterUnits="userSpaceOnUse" color-interpolation-filters="sRGB">
<feFlood flood-opacity="0" result="BackgroundImageFix"/>
<feColorMatrix in="SourceAlpha" type="matrix" values="0 0 0 0 0 0 0 0 0 0 0 0 0 0 0 0 0 0 127 0" result="hardAlpha"/>
<feOffset dy="5.5615"/>
<feGaussianBlur stdDeviation="27.8075"/>
<feComposite in2="hardAlpha" operator="out"/>
<feColorMatrix type="matrix" values="0 0 0 0 0.658824 0 0 0 0 0.835294 0 0 0 0 0.886275 0 0 0 0.7 0"/>
<feBlend mode="normal" in2="BackgroundImageFix" result="effect1_dropShadow_100_897"/>
<feBlend mode="normal" in="SourceGraphic" in2="effect1_dropShadow_100_897" result="shape"/>
</filter>
<linearGradient id="paint0_linear_100_897" x1="344.595" y1="-28.1013" x2="-9.32911" y2="201.266" gradientUnits="userSpaceOnUse">
<stop stop-color="#A8D5E2"/>
<stop offset="1" stop-color="#4DA8DA"/>
</linearGradient>
<linearGradient id="paint1_linear_100_897" x1="516.24" y1="-90.3789" x2="58.2658" y2="246.077" gradientUnits="userSpaceOnUse">
<stop stop-color="#A8D5E2"/>
<stop offset="1" stop-color="#166088"/>
</linearGradient>
<linearGradient id="paint2_linear_100_897" x1="577" y1="-8.5194e-05" x2="-285.025" y2="946.329" gradientUnits="userSpaceOnUse">
<stop stop-color="#2A8F9E"/>
<stop offset="1" stop-color="#2C3E50"/>
</linearGradient>
</defs>
</svg>
