<svg width="179" height="48" viewBox="0 0 179 48" fill="none" xmlns="http://www.w3.org/2000/svg">
<path d="M0 12.0313L35.1174 1.73109C38.0665 0.866091 41.0193 3.07723 41.0193 6.15058V43.3222C41.0193 45.8658 38.9573 47.9278 36.4136 47.9278H0V12.0313Z" fill="url(#paint0_linear_141_753)"/>
<path d="M0 12.0517L44.2269 5.46474C47.01 5.05023 49.511 7.20633 49.511 10.0202V43.3942C49.511 45.9379 47.449 47.9999 44.9054 47.9999H0V12.0517Z" fill="url(#paint1_linear_141_753)"/>
<path d="M0 12.0181H52.2457C54.7893 12.0181 56.8513 14.0801 56.8513 16.6237V43.3942C56.8513 45.9379 54.7893 47.9999 52.2457 47.9999H0V12.0181Z" fill="url(#paint2_linear_141_753)"/>
<g filter="url(#filter0_d_141_753)">
<circle cx="28.4977" cy="27.0226" r="4.85755" fill="white"/>
<path d="M27.9979 26.8993C28.1805 26.4512 28.8149 26.4512 28.9975 26.8993L33.8038 38.6925C33.9484 39.0475 33.6873 39.4359 33.304 39.4359H23.6915C23.3082 39.4359 23.047 39.0475 23.1917 38.6925L27.9979 26.8993Z" fill="white"/>
</g>
<g filter="url(#filter1_d_141_753)">
<path d="M89.9648 39.384L83.5904 19.416C83.1808 18.3664 82.7712 17.6112 82.3616 17.1504C81.952 16.6896 81.3376 16.3824 80.5184 16.2288C80.16 16.152 79.904 16.088 79.7504 16.0368C79.6224 15.9856 79.5584 15.7552 79.5584 15.3456C79.5584 14.9104 79.712 14.68 80.0192 14.6544C80.3264 14.6032 80.6848 14.5776 81.0944 14.5776C82.8096 14.6032 84.1408 14.9232 85.088 15.5376C86.0352 16.1264 86.7904 17.1504 87.3536 18.6096L91.7312 32.664H91.8848L96.5696 14.7696H98.5664L104.826 32.664H104.941L109.28 18.1872C109.485 17.368 109.472 16.856 109.242 16.6512C109.037 16.4208 108.486 16.3056 107.59 16.3056C107.334 16.3056 107.117 16.28 106.938 16.2288C106.758 16.1776 106.656 15.9344 106.63 15.4992C106.63 15.2944 106.682 15.1024 106.784 14.9232C106.886 14.744 107.053 14.6544 107.283 14.6544C108.102 14.68 108.806 14.7056 109.395 14.7312C110.01 14.7568 110.701 14.7696 111.469 14.7696C111.981 14.7696 112.403 14.7696 112.736 14.7696C113.069 14.744 113.402 14.7312 113.734 14.7312C114.093 14.7056 114.541 14.68 115.078 14.6544C115.334 14.6544 115.514 14.744 115.616 14.9232C115.718 15.1024 115.77 15.2944 115.77 15.4992C115.744 15.9344 115.642 16.1776 115.462 16.2288C115.309 16.28 115.091 16.3056 114.81 16.3056C113.837 16.3056 113.03 16.4976 112.39 16.8816C111.776 17.24 111.328 17.9184 111.046 18.9168L104.749 39.384H102.944L96.7232 21.0672L91.7696 39.384H89.9648ZM119.002 39.4608C117.441 39.4608 116.186 39.0128 115.239 38.1168C114.318 37.2208 113.857 36.1456 113.857 34.8912C113.857 33.5856 114.19 32.5616 114.855 31.8192C115.546 31.0768 116.442 30.5264 117.543 30.168C118.67 29.8096 119.886 29.5664 121.191 29.4384C122.522 29.3104 123.815 29.208 125.07 29.1312V26.0976C125.07 24.8944 124.762 23.96 124.148 23.2944C123.559 22.6032 122.548 22.2576 121.114 22.2576C120.398 22.2576 119.719 22.488 119.079 22.9488C118.465 23.4096 118.158 24.0752 118.158 24.9456C118.158 25.3552 118.26 25.7008 118.465 25.9824C118.67 26.264 118.874 26.4816 119.079 26.6352C119.284 26.7888 119.386 26.8912 119.386 26.9424C119.386 27.0448 119.233 27.2368 118.926 27.5184C118.644 27.7744 118.247 27.9024 117.735 27.9024C116.942 27.9024 116.327 27.608 115.892 27.0192C115.457 26.4304 115.239 25.7776 115.239 25.0608C115.239 24.088 115.534 23.32 116.122 22.7568C116.737 22.1936 117.518 21.784 118.465 21.528C119.412 21.272 120.372 21.144 121.345 21.144C122.497 21.144 123.61 21.2848 124.686 21.5664C125.786 21.848 126.682 22.3856 127.374 23.1792C128.09 23.9728 128.449 25.1632 128.449 26.7504V35.6976C128.474 35.9536 128.538 36.2608 128.641 36.6192C128.743 36.9776 128.935 37.2976 129.217 37.5792C129.524 37.8352 129.934 37.9632 130.446 37.9632C130.625 37.9632 130.766 38.0016 130.868 38.0784C130.97 38.1296 131.022 38.296 131.022 38.5776C131.022 38.808 130.894 38.9872 130.638 39.1152C130.382 39.2432 130.087 39.3328 129.754 39.384C129.422 39.4352 129.14 39.4608 128.91 39.4608C127.962 39.4608 127.118 39.192 126.375 38.6544C125.633 38.0912 125.198 37.3232 125.07 36.3504C124.506 37.3744 123.662 38.1552 122.535 38.6928C121.434 39.2048 120.257 39.4608 119.002 39.4608ZM120.231 37.3872C121.102 37.3872 121.895 37.1696 122.612 36.7344C123.354 36.2992 123.943 35.7104 124.378 34.968C124.839 34.2 125.07 33.3552 125.07 32.4336V30.2448C122.433 30.424 120.551 30.8464 119.425 31.512C118.298 32.1776 117.735 33.2656 117.735 34.776C117.735 36.5168 118.567 37.3872 120.231 37.3872ZM133.286 39.1152C133.107 39.1152 132.954 39.0384 132.826 38.8848C132.723 38.7056 132.672 38.5264 132.672 38.3472C132.698 37.9632 132.787 37.7584 132.941 37.7328C133.12 37.6816 133.325 37.656 133.555 37.656C134.272 37.656 134.758 37.5408 135.014 37.3104C135.296 37.0544 135.45 36.7216 135.475 36.312C135.526 35.9024 135.552 35.48 135.552 35.0448V16.3056C135.552 15.8448 135.526 15.4224 135.475 15.0384C135.45 14.6288 135.309 14.3088 135.053 14.0784C134.797 13.8224 134.31 13.6944 133.594 13.6944C133.363 13.6944 133.146 13.6688 132.941 13.6176C132.762 13.5408 132.672 13.3104 132.672 12.9264C132.672 12.5424 132.877 12.312 133.286 12.2352C134.464 12.056 135.36 11.8768 135.974 11.6976C136.614 11.5184 137.101 11.3648 137.434 11.2368C137.766 11.1088 138.061 11.032 138.317 11.0064C138.522 10.9808 138.688 11.0192 138.816 11.1216C138.97 11.224 139.046 11.4288 139.046 11.736V35.0448C139.046 35.48 139.059 35.9024 139.085 36.312C139.136 36.7216 139.29 37.0544 139.546 37.3104C139.827 37.5408 140.326 37.656 141.043 37.656C141.274 37.656 141.466 37.6816 141.619 37.7328C141.798 37.7584 141.901 37.9632 141.926 38.3472C141.926 38.5264 141.875 38.7056 141.773 38.8848C141.67 39.0384 141.517 39.1152 141.312 39.1152C140.57 39.064 139.878 39.0256 139.238 39C138.624 39 137.971 39 137.28 39C136.589 39 135.936 39 135.322 39C134.707 39.0256 134.029 39.064 133.286 39.1152ZM153.074 39.4608C151.103 39.4608 149.439 39.0384 148.082 38.1936C146.751 37.3488 145.752 36.2224 145.087 34.8144C144.421 33.4064 144.088 31.8704 144.088 30.2064C144.088 29.08 144.28 27.992 144.664 26.9424C145.074 25.8672 145.65 24.8944 146.392 24.024C147.135 23.128 148.031 22.424 149.08 21.912C150.13 21.4 151.32 21.144 152.651 21.144C155.007 21.144 156.773 21.7584 157.951 22.9872C159.154 24.1904 159.845 25.7264 160.024 27.5952C160.024 28.4912 159.768 29.08 159.256 29.3616C158.77 29.6432 158.13 29.784 157.336 29.784H148.005C148.005 31.2688 148.21 32.6 148.619 33.7776C149.029 34.9296 149.669 35.8512 150.539 36.5424C151.435 37.208 152.613 37.5408 154.072 37.5408C155.147 37.5408 156.069 37.3104 156.837 36.8496C157.605 36.3888 158.347 35.5824 159.064 34.4304C159.269 34.1744 159.551 34.1616 159.909 34.392C160.114 34.4944 160.242 34.6608 160.293 34.8912C160.344 35.096 160.319 35.2752 160.216 35.4288C159.423 36.6832 158.424 37.6688 157.221 38.3856C156.018 39.1024 154.635 39.4608 153.074 39.4608ZM148.005 28.3248H154.264C154.879 28.3248 155.365 28.2096 155.723 27.9792C156.107 27.7232 156.312 27.3008 156.338 26.712C156.338 25.6112 156.031 24.6384 155.416 23.7936C154.827 22.9232 153.906 22.488 152.651 22.488C151.371 22.488 150.296 23 149.426 24.024C148.581 25.048 148.107 26.4816 148.005 28.3248ZM170.083 39.6528C169.315 39.6528 168.586 39.4608 167.894 39.0768C167.203 38.6928 166.627 38.104 166.166 37.3104C165.731 36.5168 165.514 35.5184 165.514 34.3152V23.0256L163.286 23.1024C163.107 23.1024 162.966 23.0384 162.864 22.9104C162.787 22.7568 162.749 22.5904 162.749 22.4112C162.749 21.8992 162.928 21.6048 163.286 21.528C164.234 21.3488 164.95 21.0544 165.437 20.6448C165.923 20.2096 166.294 19.6976 166.55 19.1088C166.832 18.52 167.088 17.88 167.318 17.1888C167.395 16.984 167.51 16.856 167.664 16.8048C167.818 16.728 167.984 16.6896 168.163 16.6896C168.317 16.6896 168.483 16.728 168.662 16.8048C168.867 16.8816 168.97 17.0224 168.97 17.2272L168.701 21.6048L173.194 21.336C173.424 21.3104 173.578 21.3744 173.654 21.528C173.731 21.6816 173.77 21.8608 173.77 22.0656C173.77 22.3216 173.718 22.5776 173.616 22.8336C173.539 23.0896 173.437 23.2176 173.309 23.2176L169.008 23.1024V34.776C169.008 35.5184 169.162 36.1968 169.469 36.8112C169.802 37.4256 170.39 37.7328 171.235 37.7328C171.517 37.7328 171.837 37.7072 172.195 37.656C172.554 37.6048 172.938 37.4896 173.347 37.3104C173.45 37.2592 173.552 37.2208 173.654 37.1952C173.757 37.144 173.859 37.1184 173.962 37.1184C174.166 37.1184 174.32 37.208 174.422 37.3872C174.525 37.5408 174.614 37.7072 174.691 37.8864C174.768 38.1168 174.704 38.296 174.499 38.424C173.706 38.936 172.976 39.2688 172.31 39.4224C171.645 39.576 170.902 39.6528 170.083 39.6528Z" fill="#18555E"/>
</g>
<defs>
<filter id="filter0_d_141_753" x="17.9697" y="17.6313" width="21.0559" height="27.6338" filterUnits="userSpaceOnUse" color-interpolation-filters="sRGB">
<feFlood flood-opacity="0" result="BackgroundImageFix"/>
<feColorMatrix in="SourceAlpha" type="matrix" values="0 0 0 0 0 0 0 0 0 0 0 0 0 0 0 0 0 0 127 0" result="hardAlpha"/>
<feOffset dy="0.647674"/>
<feGaussianBlur stdDeviation="2.59069"/>
<feComposite in2="hardAlpha" operator="out"/>
<feColorMatrix type="matrix" values="0 0 0 0 0.658824 0 0 0 0 0.835294 0 0 0 0 0.886275 0 0 0 0.6 0"/>
<feBlend mode="normal" in2="BackgroundImageFix" result="effect1_dropShadow_141_753"/>
<feBlend mode="normal" in="SourceGraphic" in2="effect1_dropShadow_141_753" result="shape"/>
</filter>
<filter id="filter1_d_141_753" x="75.5913" y="8.32307" width="103.182" height="36.6192" filterUnits="userSpaceOnUse" color-interpolation-filters="sRGB">
<feFlood flood-opacity="0" result="BackgroundImageFix"/>
<feColorMatrix in="SourceAlpha" type="matrix" values="0 0 0 0 0 0 0 0 0 0 0 0 0 0 0 0 0 0 127 0" result="hardAlpha"/>
<feOffset dy="1.32235"/>
<feGaussianBlur stdDeviation="1.98353"/>
<feComposite in2="hardAlpha" operator="out"/>
<feColorMatrix type="matrix" values="0 0 0 0 0.0862745 0 0 0 0 0.376471 0 0 0 0 0.533333 0 0 0 0.4 0"/>
<feBlend mode="normal" in2="BackgroundImageFix" result="effect1_dropShadow_141_753"/>
<feBlend mode="normal" in="SourceGraphic" in2="effect1_dropShadow_141_753" result="shape"/>
</filter>
<linearGradient id="paint0_linear_141_753" x1="34.8304" y1="-2.66266" x2="1.29535" y2="19.0704" gradientUnits="userSpaceOnUse">
<stop stop-color="#A8D5E2"/>
<stop offset="1" stop-color="#4DA8DA"/>
</linearGradient>
<linearGradient id="paint1_linear_141_753" x1="51.0942" y1="-8.56359" x2="7.70012" y2="23.3163" gradientUnits="userSpaceOnUse">
<stop stop-color="#A8D5E2"/>
<stop offset="1" stop-color="#166088"/>
</linearGradient>
<linearGradient id="paint2_linear_141_753" x1="56.8513" y1="0.000123521" x2="-24.8275" y2="89.6669" gradientUnits="userSpaceOnUse">
<stop stop-color="#2A8F9E"/>
<stop offset="1" stop-color="#2C3E50"/>
</linearGradient>
</defs>
</svg>
