<svg width="909" height="748" viewBox="0 0 909 748" fill="none" xmlns="http://www.w3.org/2000/svg">
<g filter="url(#filter0_d_141_752)">
<path d="M257.8 443L224.6 339C222.467 333.533 220.333 329.6 218.2 327.2C216.067 324.8 212.867 323.2 208.6 322.4C206.733 322 205.4 321.667 204.6 321.4C203.933 321.133 203.6 319.933 203.6 317.8C203.6 315.533 204.4 314.333 206 314.2C207.6 313.933 209.467 313.8 211.6 313.8C220.533 313.933 227.467 315.6 232.4 318.8C237.333 321.867 241.267 327.2 244.2 334.8L267 408H267.8L292.2 314.8H302.6L335.2 408H335.8L358.4 332.6C359.467 328.333 359.4 325.667 358.2 324.6C357.133 323.4 354.267 322.8 349.6 322.8C348.267 322.8 347.133 322.667 346.2 322.4C345.267 322.133 344.733 320.867 344.6 318.6C344.6 317.533 344.867 316.533 345.4 315.6C345.933 314.667 346.8 314.2 348 314.2C352.267 314.333 355.933 314.467 359 314.6C362.2 314.733 365.8 314.8 369.8 314.8C372.467 314.8 374.667 314.8 376.4 314.8C378.133 314.667 379.867 314.6 381.6 314.6C383.467 314.467 385.8 314.333 388.6 314.2C389.933 314.2 390.867 314.667 391.4 315.6C391.933 316.533 392.2 317.533 392.2 318.6C392.067 320.867 391.533 322.133 390.6 322.4C389.8 322.667 388.667 322.8 387.2 322.8C382.133 322.8 377.933 323.8 374.6 325.8C371.4 327.667 369.067 331.2 367.6 336.4L334.8 443H325.4L293 347.6L267.2 443H257.8ZM409.038 443.4C400.904 443.4 394.371 441.067 389.438 436.4C384.638 431.733 382.238 426.133 382.238 419.6C382.238 412.8 383.971 407.467 387.438 403.6C391.038 399.733 395.704 396.867 401.438 395C407.304 393.133 413.638 391.867 420.438 391.2C427.371 390.533 434.104 390 440.638 389.6V373.8C440.638 367.533 439.038 362.667 435.838 359.2C432.771 355.6 427.504 353.8 420.038 353.8C416.304 353.8 412.771 355 409.438 357.4C406.238 359.8 404.638 363.267 404.638 367.8C404.638 369.933 405.171 371.733 406.238 373.2C407.304 374.667 408.371 375.8 409.438 376.6C410.504 377.4 411.038 377.933 411.038 378.2C411.038 378.733 410.238 379.733 408.638 381.2C407.171 382.533 405.104 383.2 402.438 383.2C398.304 383.2 395.104 381.667 392.838 378.6C390.571 375.533 389.438 372.133 389.438 368.4C389.438 363.333 390.971 359.333 394.038 356.4C397.238 353.467 401.304 351.333 406.238 350C411.171 348.667 416.171 348 421.238 348C427.238 348 433.038 348.733 438.638 350.2C444.371 351.667 449.038 354.467 452.638 358.6C456.371 362.733 458.238 368.933 458.238 377.2V423.8C458.371 425.133 458.704 426.733 459.238 428.6C459.771 430.467 460.771 432.133 462.238 433.6C463.838 434.933 465.971 435.6 468.638 435.6C469.571 435.6 470.304 435.8 470.838 436.2C471.371 436.467 471.638 437.333 471.638 438.8C471.638 440 470.971 440.933 469.638 441.6C468.304 442.267 466.771 442.733 465.038 443C463.304 443.267 461.838 443.4 460.638 443.4C455.704 443.4 451.304 442 447.438 439.2C443.571 436.267 441.304 432.267 440.638 427.2C437.704 432.533 433.304 436.6 427.438 439.4C421.704 442.067 415.571 443.4 409.038 443.4ZM415.438 432.6C419.971 432.6 424.104 431.467 427.838 429.2C431.704 426.933 434.771 423.867 437.038 420C439.438 416 440.638 411.6 440.638 406.8V395.4C426.904 396.333 417.104 398.533 411.238 402C405.371 405.467 402.438 411.133 402.438 419C402.438 428.067 406.771 432.6 415.438 432.6ZM483.433 441.6C482.499 441.6 481.699 441.2 481.033 440.4C480.499 439.467 480.233 438.533 480.233 437.6C480.366 435.6 480.833 434.533 481.633 434.4C482.566 434.133 483.633 434 484.833 434C488.566 434 491.099 433.4 492.433 432.2C493.899 430.867 494.699 429.133 494.833 427C495.099 424.867 495.233 422.667 495.233 420.4V322.8C495.233 320.4 495.099 318.2 494.833 316.2C494.699 314.067 493.966 312.4 492.633 311.2C491.299 309.867 488.766 309.2 485.033 309.2C483.833 309.2 482.699 309.067 481.633 308.8C480.699 308.4 480.233 307.2 480.233 305.2C480.233 303.2 481.299 302 483.433 301.6C489.566 300.667 494.233 299.733 497.433 298.8C500.766 297.867 503.299 297.067 505.033 296.4C506.766 295.733 508.299 295.333 509.633 295.2C510.699 295.067 511.566 295.267 512.233 295.8C513.033 296.333 513.433 297.4 513.433 299V420.4C513.433 422.667 513.499 424.867 513.633 427C513.899 429.133 514.699 430.867 516.033 432.2C517.499 433.4 520.099 434 523.833 434C525.033 434 526.033 434.133 526.833 434.4C527.766 434.533 528.299 435.6 528.433 437.6C528.433 438.533 528.166 439.467 527.633 440.4C527.099 441.2 526.299 441.6 525.233 441.6C521.366 441.333 517.766 441.133 514.433 441C511.233 441 507.833 441 504.233 441C500.633 441 497.233 441 494.033 441C490.833 441.133 487.299 441.333 483.433 441.6ZM586.492 443.4C576.226 443.4 567.559 441.2 560.492 436.8C553.559 432.4 548.359 426.533 544.892 419.2C541.426 411.867 539.692 403.867 539.692 395.2C539.692 389.333 540.692 383.667 542.692 378.2C544.826 372.6 547.826 367.533 551.692 363C555.559 358.333 560.226 354.667 565.692 352C571.159 349.333 577.359 348 584.292 348C596.559 348 605.759 351.2 611.892 357.6C618.159 363.867 621.759 371.867 622.692 381.6C622.692 386.267 621.359 389.333 618.692 390.8C616.159 392.267 612.826 393 608.692 393H560.092C560.092 400.733 561.159 407.667 563.292 413.8C565.426 419.8 568.759 424.6 573.292 428.2C577.959 431.667 584.092 433.4 591.692 433.4C597.292 433.4 602.092 432.2 606.092 429.8C610.092 427.4 613.959 423.2 617.692 417.2C618.759 415.867 620.226 415.8 622.092 417C623.159 417.533 623.826 418.4 624.092 419.6C624.359 420.667 624.226 421.6 623.692 422.4C619.559 428.933 614.359 434.067 608.092 437.8C601.826 441.533 594.626 443.4 586.492 443.4ZM560.092 385.4H592.692C595.892 385.4 598.426 384.8 600.292 383.6C602.292 382.267 603.359 380.067 603.492 377C603.492 371.267 601.892 366.2 598.692 361.8C595.626 357.267 590.826 355 584.292 355C577.626 355 572.026 357.667 567.492 363C563.092 368.333 560.626 375.8 560.092 385.4ZM675.083 444.4C671.083 444.4 667.283 443.4 663.683 441.4C660.083 439.4 657.083 436.333 654.683 432.2C652.416 428.067 651.283 422.867 651.283 416.6V357.8L639.683 358.2C638.749 358.2 638.016 357.867 637.483 357.2C637.083 356.4 636.883 355.533 636.883 354.6C636.883 351.933 637.816 350.4 639.683 350C644.616 349.067 648.349 347.533 650.883 345.4C653.416 343.133 655.349 340.467 656.683 337.4C658.149 334.333 659.483 331 660.683 327.4C661.083 326.333 661.683 325.667 662.483 325.4C663.283 325 664.149 324.8 665.083 324.8C665.883 324.8 666.749 325 667.683 325.4C668.749 325.8 669.283 326.533 669.283 327.6L667.883 350.4L691.283 349C692.483 348.867 693.283 349.2 693.683 350C694.083 350.8 694.283 351.733 694.283 352.8C694.283 354.133 694.016 355.467 693.483 356.8C693.083 358.133 692.549 358.8 691.883 358.8L669.483 358.2V419C669.483 422.867 670.283 426.4 671.883 429.6C673.616 432.8 676.683 434.4 681.083 434.4C682.549 434.4 684.216 434.267 686.083 434C687.949 433.733 689.949 433.133 692.083 432.2C692.616 431.933 693.149 431.733 693.683 431.6C694.216 431.333 694.749 431.2 695.283 431.2C696.349 431.2 697.149 431.667 697.683 432.6C698.216 433.4 698.683 434.267 699.083 435.2C699.483 436.4 699.149 437.333 698.083 438C693.949 440.667 690.149 442.4 686.683 443.2C683.216 444 679.349 444.4 675.083 444.4Z" fill="white"/>
</g>
<defs>
<filter id="filter0_d_141_752" x="163.6" y="259" width="576.083" height="229.4" filterUnits="userSpaceOnUse" color-interpolation-filters="sRGB">
<feFlood flood-opacity="0" result="BackgroundImageFix"/>
<feColorMatrix in="SourceAlpha" type="matrix" values="0 0 0 0 0 0 0 0 0 0 0 0 0 0 0 0 0 0 127 0" result="hardAlpha"/>
<feOffset dy="4"/>
<feGaussianBlur stdDeviation="20"/>
<feComposite in2="hardAlpha" operator="out"/>
<feColorMatrix type="matrix" values="0 0 0 0 0.658824 0 0 0 0 0.835294 0 0 0 0 0.886275 0 0 0 0.7 0"/>
<feBlend mode="normal" in2="BackgroundImageFix" result="effect1_dropShadow_141_752"/>
<feBlend mode="normal" in="SourceGraphic" in2="effect1_dropShadow_141_752" result="shape"/>
</filter>
</defs>
</svg>
